# xmcd CD database file
#
# Track frame offsets:
#	150
#	19350
#	36390
#	53888
#	70078
#	89575
#	106560
#	120168
#	137440
#	156700
#
# Disc length: 2341 seconds
#
# Revision: 0
# Processed by: cddbd v1.5.1PL2 Copyright (c) Steve Scherf et al.
# Submitted via: CDex 1.51
#
DISCID=8209230a
DTITLE=門あさ美 - PRIVATE MAIL
DYEAR=1983
DGENRE=JPop
TTITLE0=ミストレス
TTITLE1=ミステイク・パートナー
TTITLE2=Mrs.アバンチュール
TTITLE3=夕凪ぎ
TTITLE4=うわさ
TTITLE5=TO ONE TWO ONE
TTITLE6=ぎゅっとぎゅっといい
TTITLE7=感度は良好
TTITLE8=愛情回路
TTITLE9=極上フレンド
EXTD=YEAR: 1983
EXTT0=
EXTT1=
EXTT2=
EXTT3=
EXTT4=
EXTT5=
EXTT6=
EXTT7=
EXTT8=
EXTT9=
PLAYORDER=
